<mxfile host="app.diagrams.net" modified="2020-07-10T02:16:38.565Z" agent="5.0 (Macintosh; Intel Mac OS X 10_15_5) AppleWebKit/537.36 (KHTML, like Gecko) Chrome/83.0.4103.116 Safari/537.36" etag="GLIYqWQRzEk4EpTuv2ET" version="13.3.9" type="github">
  <diagram id="91v85Igl7zn0H1k9vhhR" name="第 1 页">
    <mxGraphModel dx="1188" dy="643" grid="1" gridSize="10" guides="1" tooltips="1" connect="1" arrows="1" fold="1" page="1" pageScale="1" pageWidth="827" pageHeight="1169" math="0" shadow="0">
      <root>
        <mxCell id="0" />
        <mxCell id="1" parent="0" />
        <mxCell id="XSiEnrfDzRsLdTTxAXyQ-5" value="" style="rounded=1;whiteSpace=wrap;html=1;" vertex="1" parent="1">
          <mxGeometry x="230" width="230" height="140" as="geometry" />
        </mxCell>
        <mxCell id="XSiEnrfDzRsLdTTxAXyQ-6" value="&lt;b&gt;&lt;i&gt;src4_hash_table:1M&lt;/i&gt;&lt;/b&gt;" style="text;html=1;align=center;verticalAlign=middle;resizable=0;points=[];autosize=1;" vertex="1" parent="1">
          <mxGeometry x="235" width="130" height="20" as="geometry" />
        </mxCell>
        <mxCell id="XSiEnrfDzRsLdTTxAXyQ-22" value="key" style="rounded=0;whiteSpace=wrap;html=1;" vertex="1" parent="1">
          <mxGeometry x="245" y="50" width="100" height="20" as="geometry" />
        </mxCell>
        <mxCell id="XSiEnrfDzRsLdTTxAXyQ-23" value="value" style="rounded=0;whiteSpace=wrap;html=1;" vertex="1" parent="1">
          <mxGeometry x="345" y="50" width="100" height="20" as="geometry" />
        </mxCell>
        <mxCell id="XSiEnrfDzRsLdTTxAXyQ-28" value="" style="rounded=1;whiteSpace=wrap;html=1;" vertex="1" parent="1">
          <mxGeometry x="490" width="230" height="140" as="geometry" />
        </mxCell>
        <mxCell id="XSiEnrfDzRsLdTTxAXyQ-29" value="&lt;b&gt;&lt;i&gt;dst4_hash_table:1M&lt;/i&gt;&lt;/b&gt;" style="text;html=1;align=center;verticalAlign=middle;resizable=0;points=[];autosize=1;" vertex="1" parent="1">
          <mxGeometry x="495" width="130" height="20" as="geometry" />
        </mxCell>
        <mxCell id="XSiEnrfDzRsLdTTxAXyQ-30" value="key" style="rounded=0;whiteSpace=wrap;html=1;" vertex="1" parent="1">
          <mxGeometry x="505" y="50" width="100" height="20" as="geometry" />
        </mxCell>
        <mxCell id="XSiEnrfDzRsLdTTxAXyQ-31" value="value" style="rounded=0;whiteSpace=wrap;html=1;" vertex="1" parent="1">
          <mxGeometry x="605" y="50" width="100" height="20" as="geometry" />
        </mxCell>
        <mxCell id="XSiEnrfDzRsLdTTxAXyQ-32" value="10.20.47.147" style="rounded=0;whiteSpace=wrap;html=1;" vertex="1" parent="1">
          <mxGeometry x="505" y="70" width="100" height="20" as="geometry" />
        </mxCell>
        <mxCell id="XSiEnrfDzRsLdTTxAXyQ-33" value="0100" style="rounded=0;whiteSpace=wrap;html=1;" vertex="1" parent="1">
          <mxGeometry x="605" y="70" width="100" height="20" as="geometry" />
        </mxCell>
        <mxCell id="XSiEnrfDzRsLdTTxAXyQ-34" value="10.20.47.148" style="rounded=0;whiteSpace=wrap;html=1;" vertex="1" parent="1">
          <mxGeometry x="505" y="90" width="100" height="20" as="geometry" />
        </mxCell>
        <mxCell id="XSiEnrfDzRsLdTTxAXyQ-35" value="1100" style="rounded=0;whiteSpace=wrap;html=1;" vertex="1" parent="1">
          <mxGeometry x="605" y="90" width="100" height="20" as="geometry" />
        </mxCell>
        <mxCell id="XSiEnrfDzRsLdTTxAXyQ-36" value="" style="rounded=1;whiteSpace=wrap;html=1;" vertex="1" parent="1">
          <mxGeometry x="230" y="160" width="230" height="140" as="geometry" />
        </mxCell>
        <mxCell id="XSiEnrfDzRsLdTTxAXyQ-37" value="&lt;b&gt;&lt;i&gt;src4_lpm_table:100k&lt;/i&gt;&lt;/b&gt;" style="text;html=1;align=center;verticalAlign=middle;resizable=0;points=[];autosize=1;" vertex="1" parent="1">
          <mxGeometry x="235" y="160" width="130" height="20" as="geometry" />
        </mxCell>
        <mxCell id="XSiEnrfDzRsLdTTxAXyQ-38" value="key" style="rounded=0;whiteSpace=wrap;html=1;" vertex="1" parent="1">
          <mxGeometry x="245" y="210" width="100" height="20" as="geometry" />
        </mxCell>
        <mxCell id="XSiEnrfDzRsLdTTxAXyQ-39" value="value" style="rounded=0;whiteSpace=wrap;html=1;" vertex="1" parent="1">
          <mxGeometry x="345" y="210" width="100" height="20" as="geometry" />
        </mxCell>
        <mxCell id="XSiEnrfDzRsLdTTxAXyQ-50" value="" style="rounded=1;whiteSpace=wrap;html=1;" vertex="1" parent="1">
          <mxGeometry x="490" y="160" width="230" height="140" as="geometry" />
        </mxCell>
        <mxCell id="XSiEnrfDzRsLdTTxAXyQ-51" value="&lt;b&gt;&lt;i&gt;dst4_lpm_table:100k&lt;/i&gt;&lt;/b&gt;" style="text;html=1;align=center;verticalAlign=middle;resizable=0;points=[];autosize=1;" vertex="1" parent="1">
          <mxGeometry x="495" y="160" width="130" height="20" as="geometry" />
        </mxCell>
        <mxCell id="XSiEnrfDzRsLdTTxAXyQ-52" value="key" style="rounded=0;whiteSpace=wrap;html=1;" vertex="1" parent="1">
          <mxGeometry x="505" y="210" width="100" height="20" as="geometry" />
        </mxCell>
        <mxCell id="XSiEnrfDzRsLdTTxAXyQ-53" value="value" style="rounded=0;whiteSpace=wrap;html=1;" vertex="1" parent="1">
          <mxGeometry x="605" y="210" width="100" height="20" as="geometry" />
        </mxCell>
        <mxCell id="XSiEnrfDzRsLdTTxAXyQ-54" value="11.0.0.0/8" style="rounded=0;whiteSpace=wrap;html=1;" vertex="1" parent="1">
          <mxGeometry x="505" y="230" width="100" height="20" as="geometry" />
        </mxCell>
        <mxCell id="XSiEnrfDzRsLdTTxAXyQ-55" value="0001" style="rounded=0;whiteSpace=wrap;html=1;" vertex="1" parent="1">
          <mxGeometry x="605" y="230" width="100" height="20" as="geometry" />
        </mxCell>
      </root>
    </mxGraphModel>
  </diagram>
</mxfile>
